# xmcd
#
# Track frame offsets: 
#        150
#        27393
#        50742
#        73362
#        96710
#        126892
#        147327
#        177062
#        197548
#        221789
#        248942
#        269067
#        297195
#        324363
#
# Disc length: 4767 seconds
#
# Revision: 0
# Processed by: cddbd v1.5.2PL0 Copyright (c) Steve Scherf et al.
# Submitted via: ExactAudioCopy v0.99pb5
#
DISCID=ec129d0e
DTITLE=Various Artist - Ночной десант 2006 vol.3
DYEAR=2006
DGENRE=House
TTITLE0=VA - Track01
TTITLE1=VA - Track02
TTITLE2=VA - Track03
TTITLE3=VA - Track04
TTITLE4=VA - Track05
TTITLE5=VA - Track06
TTITLE6=VA - Track07
TTITLE7=VA - Track08
TTITLE8=VA - Track09
TTITLE9=VA - Track10
TTITLE10=VA - Track11
TTITLE11=VA - Track12
TTITLE12=VA - Track13
TTITLE13=VA - Track14
EXTD=
EXTT0=
EXTT1=
EXTT2=
EXTT3=
EXTT4=
EXTT5=
EXTT6=
EXTT7=
EXTT8=
EXTT9=
EXTT10=
EXTT11=
EXTT12=
EXTT13=
PLAYORDER=
